<?xml version="1.0" encoding="UTF-8"?>
<svg version="1.1" xmlns="http://www.w3.org/2000/svg" width="500" height="500">
<path d="M0 0 C2.38098762 2.13817762 4.72462058 4.31132019 7.06640625 6.4921875 C8.41646789 7.66360204 9.77048139 8.8304817 11.12890625 9.9921875 C19.30467088 17.15008585 26.32403632 24.98659911 33.06640625 33.4921875 C33.94046748 34.56456793 34.81549915 35.63615798 35.69140625 36.70703125 C42.85310217 45.53769586 49.14797584 54.7884866 55.06640625 64.4921875 C55.48776855 65.17700195 55.90913086 65.86181641 56.34326172 66.56738281 C79.23049749 104.22720771 89.55389918 148.38346011 89.37890625 192.1171875 C89.3767511 193.08774078 89.37459595 194.05829407 89.37237549 195.05825806 C89.32135196 209.3830397 88.98671442 223.41900901 86.06640625 237.4921875 C85.76041504 238.98274658 85.76041504 238.98274658 85.44824219 240.50341797 C71.35199007 307.15796672 33.19382397 365.34144306 -23.93359375 402.9921875 C-60.56976689 426.50180055 -104.56070735 442.32682006 -148.41796875 442.73046875 C-149.74609085 442.74522751 -149.74609085 442.74522751 -151.1010437 442.76028442 C-204.29862534 443.22887048 -255.40469853 432.02802989 -299.93359375 401.4921875 C-300.54235352 401.07727051 -301.15111328 400.66235352 -301.77832031 400.23486328 C-332.52648972 379.13301931 -357.57238783 352.30353187 -376.93359375 320.4921875 C-377.35205566 319.81172363 -377.77051758 319.13125977 -378.20166016 318.43017578 C-400.99847095 280.92172821 -411.40620167 236.82247532 -411.30859375 193.2421875 C-411.30771759 192.28096985 -411.30684143 191.3197522 -411.30593872 190.32940674 C-411.18566456 150.12620818 -402.23682132 110.96939039 -382.93359375 75.4921875 C-382.5886084 74.84378906 -382.24362305 74.19539062 -381.88818359 73.52734375 C-350.3732068 14.38812803 -295.72487612 -28.6991391 -231.99755859 -48.49511719 C-223.40798894 -51.05265579 -214.75152939 -52.93437143 -205.93359375 -54.5078125 C-204.76304443 -54.73428467 -204.76304443 -54.73428467 -203.56884766 -54.96533203 C-132.48655395 -68.38828707 -54.73389815 -46.78983038 0 0 Z " fill="#C7E749" transform="translate(410.93359375,57.5078125)"/>
<path d="M0 0 C3.52956687 1.11308497 7.08143832 2.14486878 10.63745117 3.16992188 C13.25638186 4.03543743 15.38607458 5.35251713 17.6940918 6.84960938 C19.38789538 7.57257432 21.0820328 8.29478074 22.77880859 9.01074219 C31.42414978 12.7972804 39.66971094 17.68122817 47.6315918 22.72460938 C48.24075439 23.10568848 48.84991699 23.48676758 49.47753906 23.87939453 C50.92116515 24.81302464 52.31388123 25.82455315 53.6940918 26.84960938 C53.6940918 27.50960937 53.6940918 28.16960937 53.6940918 28.84960938 C50.67371091 29.18755409 47.65289424 29.52009371 44.6315918 29.84960938 C43.7840332 29.945 42.93647461 30.04039063 42.06323242 30.13867188 C33.44303179 31.07058546 27.52039152 31.30798507 19.8190918 27.09960938 C18.39782797 26.35755221 16.97595786 25.61665502 15.5534668 24.87695312 C14.8812207 24.5222998 14.20897461 24.16764648 13.51635742 23.80224609 C9.9842865 21.95576422 6.38773417 20.34224568 2.6940918 18.84960938 C1.7556543 18.46289062 0.8172168 18.07617188 -0.1496582 17.67773438 C-31.67048018 5.51970304 -68.55398091 4.12264554 -101.3059082 11.84960938 C-102.56685303 12.13916504 -102.56685303 12.13916504 -103.85327148 12.43457031 C-123.09338067 17.03407041 -142.53382881 25.86753712 -158.3059082 37.84960938 C-159.38641644 38.64808551 -160.46715827 39.44624561 -161.5480957 40.24414062 C-168.46851452 45.41119997 -175.03048738 50.91201708 -181.3059082 56.84960938 C-182.12704102 57.61789063 -182.94817383 58.38617188 -183.79418945 59.17773438 C-213.93304968 88.23853272 -232.46376774 132.03455437 -233.47387695 173.78710938 C-233.82182143 211.97869209 -223.82574709 248.65481309 -201.3059082 279.84960938 C-200.54020508 280.91179687 -199.77450195 281.97398437 -198.9855957 283.06835938 C-193.70252445 290.46524569 -193.70252445 290.46524569 -187.3059082 296.84960938 C-183.8669232 296.45640937 -180.70620061 295.3822062 -177.4465332 294.24804688 C-176.5088208 293.92618408 -175.5711084 293.60432129 -174.60498047 293.27270508 C-173.0956897 292.75389771 -173.0956897 292.75389771 -171.5559082 292.22460938 C-139.06032005 281.26906702 -103.93134566 271.35139333 -69.3059082 272.84960938 C-69.85756367 249.26633821 -75.53150595 227.81636996 -88.3059082 207.84960938 C-88.6663623 207.28032715 -89.02681641 206.71104492 -89.39819336 206.12451172 C-97.68881705 193.2437223 -108.45963561 181.1224767 -121.64575195 173.14648438 C-122.19360352 172.71851563 -122.74145508 172.29054687 -123.3059082 171.84960938 C-123.3059082 170.85960937 -123.3059082 169.86960938 -123.3059082 168.84960938 C-103.90429127 171.33919739 -84.99308056 188.92673227 -73.3059082 203.84960938 C-70.53909386 207.78993462 -67.89063979 211.78690626 -65.3059082 215.84960938 C-65.13575195 214.92921875 -64.9655957 214.00882813 -64.7902832 213.06054688 C-63.08619188 204.15938903 -60.9306709 195.53228444 -58.3059082 186.84960938 C-57.99782227 185.769375 -57.68973633 184.68914062 -57.37231445 183.57617188 C-50.44280486 159.82606846 -37.70776898 139.10692196 -20.66430664 121.27539062 C-19.39926179 119.94759373 -18.1525831 118.60236529 -16.9074707 117.25585938 C-3.22163949 102.88801 15.88992869 90.41251911 34.6940918 83.84960938 C35.6840918 84.17960937 36.6740918 84.50960937 37.6940918 84.84960938 C37.19522461 85.22730469 36.69635742 85.605 36.18237305 85.99414062 C25.74438809 93.99597111 15.83776028 102.3844838 6.6940918 111.84960938 C5.88069336 112.66171875 5.06729492 113.47382813 4.22924805 114.31054688 C-9.52855512 128.08954851 -20.37604565 143.57400611 -29.3059082 160.84960938 C-29.68875977 161.58405273 -30.07161133 162.31849609 -30.46606445 163.07519531 C-36.59238059 174.96894273 -40.89101887 186.92950805 -44.3059082 199.84960938 C-44.61141602 200.94015625 -44.91692383 202.03070313 -45.23168945 203.15429688 C-51.22642838 226.33395407 -50.68052948 250.11975298 -50.3059082 273.84960938 C-49.20013428 273.82858154 -48.09436035 273.80755371 -46.95507812 273.78588867 C-37.07146096 273.65629465 -27.47201706 274.11078287 -17.67285156 275.39379883 C-15.60857307 275.66339384 -13.5426685 275.91493139 -11.47583008 276.1640625 C0.49172318 277.64460004 12.46149065 279.31715628 23.6940918 283.84960938 C25.56065038 284.33234004 27.42796484 284.81304173 29.3034668 285.25976562 C39.17535129 287.69547569 48.5791646 290.78780649 57.90893555 294.80273438 C61.99354449 296.47613096 64.49230275 297.31639244 68.6940918 295.84960938 C71.13982548 293.63825799 71.13982548 293.63825799 73.3815918 290.72460938 C73.80730469 290.19689941 74.23301758 289.66918945 74.67163086 289.12548828 C79.77808345 282.67217604 84.31695882 275.8118718 88.6940918 268.84960938 C89.17354248 268.10300049 89.65299316 267.3563916 90.14697266 266.5871582 C94.10863425 260.24735997 97.04198486 253.74271838 99.7565918 246.78710938 C100.1885083 245.68874756 100.6204248 244.59038574 101.06542969 243.45874023 C109.14276904 222.61630632 113.31537185 202.46725563 113.1315918 180.09960938 C113.12755341 179.27133636 113.12351501 178.44306335 113.11935425 177.58969116 C112.9364378 150.7377505 107.68204739 122.95140177 93.0300293 99.96289062 C91.31312384 95.96179808 91.81749903 92.96521241 92.6940918 88.84960938 C92.81848633 88.17583252 92.94288086 87.50205566 93.07104492 86.80786133 C93.44256893 84.81621354 93.84448922 82.83322273 94.2565918 80.84960938 C94.39516602 80.17027344 94.53374023 79.4909375 94.67651367 78.79101562 C95.01301327 77.14332791 95.35315773 75.49638524 95.6940918 73.84960938 C99.68816082 75.18096572 100.73455066 77.63318941 102.7565918 81.09960938 C103.14435791 81.75856201 103.53212402 82.41751465 103.93164062 83.09643555 C121.11530205 112.93380095 131.04145253 146.14537718 131.0690918 180.72460938 C131.07062256 181.76246582 131.07215332 182.80032227 131.07373047 183.86962891 C130.97067097 191.02621871 130.00025791 197.82349951 128.6940918 204.84960938 C128.40406693 206.62116459 128.11749316 208.39328896 127.8347168 210.16601562 C122.91416722 239.67542893 112.22623543 268.11806673 93.6940918 291.84960938 C92.77563477 293.03876953 92.77563477 293.03876953 91.83862305 294.25195312 C89.82460395 296.81411763 87.76585033 299.33390258 85.6940918 301.84960938 C85.26644531 302.3795752 84.83879883 302.90954102 84.39819336 303.45556641 C76.95243145 312.65899053 68.95761321 320.48567569 59.6940918 327.84960938 C58.70666992 328.63980469 57.71924805 329.43 56.7019043 330.24414062 C34.12986814 347.7084125 8.14852139 360.16271636 -19.6184082 366.66210938 C-20.50149658 366.8694873 -21.38458496 367.07686523 -22.29443359 367.29052734 C-34.3282536 369.9433181 -46.41317013 370.03611332 -58.67749023 370.03491211 C-61.16968867 370.03709953 -63.66144374 370.0553279 -66.15356445 370.07421875 C-115.7582792 370.25269393 -161.49264882 347.28317404 -196.3059082 312.84960938 C-212.93990261 295.79316432 -225.58994414 275.91586916 -235.24389648 254.22412109 C-236.15343374 252.19052124 -237.09547651 250.17770643 -238.05200195 248.16601562 C-245.65458928 231.08487786 -249.32689328 210.47055186 -250.3059082 191.84960938 C-250.35505371 190.94726562 -250.40419922 190.04492188 -250.45483398 189.11523438 C-251.99912151 155.28482086 -244.7662864 121.52067737 -228.3059082 91.84960938 C-227.82895508 90.91117187 -227.35200195 89.97273438 -226.8605957 89.00585938 C-214.16604529 64.34216143 -194.45194947 43.27702947 -172.3059082 26.84960938 C-171.45383789 26.21410156 -170.60176758 25.57859375 -169.72387695 24.92382812 C-167.28882154 23.16719611 -164.81724874 21.49535473 -162.3059082 19.84960938 C-161.26950195 19.16511719 -160.2330957 18.480625 -159.1652832 17.77539062 C-142.09771443 6.84973423 -123.0055894 -0.6023729 -103.3059082 -5.15039062 C-102.41983887 -5.35921875 -101.53376953 -5.56804687 -100.62084961 -5.78320312 C-67.40269207 -13.28503467 -32.18666319 -10.270191 0 0 Z " fill="#275428" transform="translate(309.305908203125,71.150390625)"/>
<path d="M0 0 C2.43946627 0.01065163 4.87818389 0.0000805 7.31762695 -0.01269531 C18.26390849 -0.02296801 28.92543716 0.84486659 39.77270508 2.26074219 C41.00851318 2.4120459 42.24432129 2.56334961 43.51757812 2.71923828 C57.20906955 4.42244952 70.48453371 6.49408884 83.66186523 10.61962891 C85.9000409 11.29941717 88.14879519 11.91391209 90.40942383 12.51464844 C99.45125802 14.91791235 108.11834568 17.66750109 116.77270508 21.26074219 C115.48288384 25.1302059 113.11196361 26.60339491 109.96020508 28.94824219 C109.08005737 29.61025635 109.08005737 29.61025635 108.18212891 30.28564453 C71.60321992 57.56366379 25.72532317 71.11899328 -19.78979492 64.94824219 C-27.3985185 63.83840325 -34.84927536 62.45822427 -42.22729492 60.26074219 C-43.27788086 59.96296875 -44.3284668 59.66519531 -45.41088867 59.35839844 C-69.46039072 52.30501091 -91.45655118 39.81802352 -110.22729492 23.26074219 C-109.73229492 21.77574219 -109.73229492 21.77574219 -109.22729492 20.26074219 C-106.6559409 19.16137286 -104.20038142 18.27485937 -101.53979492 17.44824219 C-100.74323486 17.19252441 -99.9466748 16.93680664 -99.12597656 16.67333984 C-90.0943136 13.8216025 -80.96584501 11.3158529 -71.80053711 8.93359375 C-69.48216097 8.32738458 -67.17120544 7.69865126 -64.86010742 7.06542969 C-55.85494647 4.68432423 -46.97438993 3.58299569 -37.68261719 2.94335938 C-32.78191572 2.60427065 -28.03112538 2.07936652 -23.19213867 1.22167969 C-15.45934408 -0.0173522 -7.81130367 -0.04038053 0 0 Z " fill="#C6E649" transform="translate(246.227294921875,359.7392578125)"/>
<path d="M0 0 C2.15452892 0.00542951 4.30885576 -0.00000939 6.46337891 -0.00634766 C7.83186895 -0.00568804 9.20035887 -0.00440929 10.56884766 -0.00244141 C11.80505859 -0.00131348 13.04126953 -0.00018555 14.31494141 0.00097656 C17.13134766 0.13037109 17.13134766 0.13037109 18.13134766 1.13037109 C18.98818493 14.0261321 18.80865335 27.46518922 16.13134766 40.13037109 C15.97005371 40.90268066 15.80875977 41.67499023 15.64257812 42.47070312 C10.42094504 67.0296441 2.34025317 88.6743173 -13.86865234 108.13037109 C-14.68591797 109.14873047 -15.50318359 110.16708984 -16.34521484 111.21630859 C-31.74243902 128.99700401 -55.57433137 138.70756573 -78.05615234 143.38037109 C-78.88783936 143.55592529 -79.71952637 143.73147949 -80.57641602 143.91235352 C-86.10123809 144.99845777 -91.23894258 145.28879509 -96.86865234 145.13037109 C-94.91552734 138.88037109 -94.91552734 138.88037109 -93.86865234 136.13037109 C-93.65402344 135.46352295 -93.43939453 134.7966748 -93.21826172 134.10961914 C-91.95959738 130.85720986 -91.05468616 128.65881566 -87.77001953 127.1953125 C-85.13724781 126.61251305 -82.54778753 126.24708923 -79.86865234 125.94287109 C-77.96223742 125.65422205 -76.05723402 125.35608612 -74.15380859 125.04833984 C-73.23873535 124.90187012 -72.32366211 124.75540039 -71.38085938 124.60449219 C-66.16483839 123.62008862 -61.58682702 121.4826205 -56.86865234 119.13037109 C-55.85544922 118.66630859 -54.84224609 118.20224609 -53.79833984 117.72412109 C-47.11120934 114.57329269 -41.49878309 110.89852446 -35.86865234 106.13037109 C-35.26537109 105.65986328 -34.66208984 105.18935547 -34.04052734 104.70458984 C-12.96700685 87.85526602 -3.09486358 57.01337667 -0.11865234 31.13037109 C0.39215626 26.13602784 0.79134532 21.13906222 1.13134766 16.13037109 C-33.07278565 18.50458576 -67.83360274 22.47333268 -92.86865234 48.13037109 C-93.74005859 48.97728516 -94.61146484 49.82419922 -95.50927734 50.69677734 C-106.16667888 61.68942826 -112.55798952 77.75142901 -113.18115234 93.00537109 C-113.55907725 97.76542521 -116.11812844 100.71219923 -118.94677734 104.42333984 C-122.19629517 109.00040459 -124.49060885 114.06069595 -126.86865234 119.13037109 C-127.52865234 118.80037109 -128.18865234 118.47037109 -128.86865234 118.13037109 C-133.91767299 94.61170719 -128.80661019 70.71851313 -116.55615234 50.44287109 C-98.99570133 23.92927985 -71.96824369 10.81976047 -41.86865234 4.13037109 C-35.56991247 2.88593573 -29.23687091 1.93617581 -22.86865234 1.13037109 C-22.21590332 1.0346582 -21.5631543 0.93894531 -20.890625 0.84033203 C-13.950683 -0.08849445 -6.98759317 -0.02105185 0 0 Z " fill="#275428" transform="translate(377.86865234375,109.86962890625)"/>
<path d="M0 0 C4.69523207 1.58196544 9.26745507 3.38973182 13.83056641 5.31738281 C15.59013672 6.02121094 15.59013672 6.02121094 17.38525391 6.73925781 C29.5427839 12.30801305 42.68368116 22.20035983 48.83056641 34.31738281 C49.00327757 39.23965106 47.14806305 43.55101431 45.52978516 48.16113281 C44.65904203 50.84632948 44.18907603 53.52100778 43.83056641 56.31738281 C43.17056641 56.31738281 42.51056641 56.31738281 41.83056641 56.31738281 C41.46318359 55.46080078 41.46318359 55.46080078 41.08837891 54.58691406 C33.20244502 37.48259539 20.68578154 25.73923158 3.16650391 18.82128906 C-9.85492582 14.08053513 -23.40476453 12.66987114 -37.16943359 12.31738281 C-36.21135904 29.46691737 -30.71458377 46.30444315 -19.16943359 59.31738281 C-18.45916016 60.12433594 -17.74888672 60.93128906 -17.01708984 61.76269531 C-8.33629005 71.00797594 0.56683714 75.03907981 12.78686523 77.78686523 C17.51696963 78.99687073 20.14353503 80.04818176 22.81103516 84.26269531 C23.51728355 85.59727457 24.1915978 86.94931567 24.83056641 88.31738281 C25.19964111 89.00429199 25.56871582 89.69120117 25.94897461 90.39892578 C27.05284788 92.80109586 26.97569755 94.7050222 26.83056641 97.31738281 C13.5612992 97.70029174 1.46284441 93.44853066 -10.16943359 87.31738281 C-11.05244141 86.85460937 -11.93544922 86.39183594 -12.84521484 85.91503906 C-31.84636036 75.24721086 -43.9920767 56.82529925 -50.16943359 36.31738281 C-52.90756481 26.10643516 -54.34359293 16.36489581 -54.23193359 5.81738281 C-54.22742188 4.99496094 -54.22291016 4.17253906 -54.21826172 3.32519531 C-54.20661848 1.32255885 -54.18868915 -0.68003945 -54.16943359 -2.68261719 C-41.48620144 -9.02423326 -12.9768102 -4.08318268 0 0 Z " fill="#285428" transform="translate(195.16943359375,206.6826171875)"/>
<path d="M0 0 C-0.49886719 0.37769531 -0.99773437 0.75539062 -1.51171875 1.14453125 C-5.22183836 3.98873426 -8.87371708 6.8638352 -12.38671875 9.94921875 C-12.96397705 10.45283936 -13.54123535 10.95645996 -14.13598633 11.4753418 C-15.28786228 12.48523444 -16.43239224 13.50357285 -17.5690918 14.53051758 C-19.1796875 15.9375 -19.1796875 15.9375 -22 18 C-22.99 17.67 -23.98 17.34 -25 17 C-25 16.34 -25 15.68 -25 15 C-28.58505767 15.91383823 -31.62736711 16.77642027 -34.8125 18.6875 C-35.534375 19.120625 -36.25625 19.55375 -37 20 C-37.66 19.67 -38.32 19.34 -39 19 C-30.62124131 12.95081938 -22.07605336 7.78932734 -12.75 3.3125 C-11.83323486 2.86664551 -10.91646973 2.42079102 -9.97192383 1.96142578 C-9.10978271 1.55778809 -8.2476416 1.15415039 -7.359375 0.73828125 C-6.59077148 0.37774658 -5.82216797 0.01721191 -5.03027344 -0.35424805 C-3 -1 -3 -1 0 0 Z " fill="#2D551F" transform="translate(347,156)"/>
<path d="M0 0 C0 0.99 0 1.98 0 3 C-4.79726653 3.14586546 -9.5946247 3.28806564 -14.39208984 3.42724609 C-16.01516464 3.47480522 -17.63821323 3.52326965 -19.26123047 3.57275391 C-30.84454109 3.92507062 -42.4114356 4.06238796 -54 4 C-54 3.67 -54 3.34 -54 3 C-35.88385865 -0.01636447 -18.302399 -0.35124179 0 0 Z " fill="#315615" transform="translate(395,110)"/>
<path d="M0 0 C4.57643753 0.56093853 8.0859292 1.78522629 12.1875 3.875 C13.21230469 4.38804687 14.23710937 4.90109375 15.29296875 5.4296875 C17.63319413 6.78722084 19.23896359 7.97874171 21 10 C20.38125 10.268125 19.7625 10.53625 19.125 10.8125 C16.7004767 11.95556848 16.7004767 11.95556848 15 15 C14.41992188 14.46890625 13.83984375 13.9378125 13.2421875 13.390625 C8.10604779 8.69379436 8.10604779 8.69379436 2.4375 4.6875 C1.633125 4.130625 0.82875 3.57375 0 3 C0 2.01 0 1.02 0 0 Z " fill="#366327" transform="translate(186,240)"/>
<path d="M0 0 C0.33 0 0.66 0 1 0 C1 14.52 1 29.04 1 44 C6.94 44 12.88 44 19 44 C19 44.33 19 44.66 19 45 C15.87507749 45.05791844 12.75029234 45.09356746 9.625 45.125 C8.73554688 45.14175781 7.84609375 45.15851563 6.9296875 45.17578125 C5.65351563 45.18544922 5.65351563 45.18544922 4.3515625 45.1953125 C3.17327881 45.21102295 3.17327881 45.21102295 1.97119141 45.22705078 C0 45 0 45 -2 43 C-2.24291992 41.1784668 -2.24291992 41.1784668 -2.23046875 38.94921875 C-2.22926025 38.11487305 -2.22805176 37.28052734 -2.22680664 36.42089844 C-2.21383545 35.51887695 -2.20086426 34.61685547 -2.1875 33.6875 C-2.17674438 32.30159668 -2.17674438 32.30159668 -2.16577148 30.88769531 C-2.08731032 24.00403578 -1.86601931 17.12718709 -1.5625 10.25 C-1.52342529 9.33951904 -1.48435059 8.42903809 -1.4440918 7.4909668 C-1.12373973 1.12373973 -1.12373973 1.12373973 0 0 Z " fill="#30571A" transform="translate(258,301)"/>
<path d="M0 0 C0.33 0 0.66 0 1 0 C1 10.89 1 21.78 1 33 C1.99 33 2.98 33 4 33 C3.34 34.98 2.68 36.96 2 39 C1.34 38.67 0.68 38.34 0 38 C-1.42803562 31.57383973 -1.14789331 24.98880123 -1.125 18.4375 C-1.12886719 17.32697266 -1.13273438 16.21644531 -1.13671875 15.07226562 C-1.13542969 13.99525391 -1.13414062 12.91824219 -1.1328125 11.80859375 C-1.13168457 10.83720459 -1.13055664 9.86581543 -1.12939453 8.86499023 C-0.99292486 5.84334563 -0.55401149 2.97114105 0 0 Z " fill="#365E1C" transform="translate(249,190)"/>
<path d="M0 0 C0.33 0 0.66 0 1 0 C1.19558903 10.69220032 0.59054589 21.32799208 0 32 C-1.98 32.495 -1.98 32.495 -4 33 C-4.32606122 26.06100976 -3.1036696 19.39704858 -2 12.5625 C-1.80921875 11.35400391 -1.6184375 10.14550781 -1.421875 8.90039062 C-0.95269085 5.93280089 -0.47859566 2.9660839 0 0 Z " fill="#2B5219" transform="translate(380,126)"/>
<path d="M0 0 C14.78132118 -0.3690205 14.78132118 -0.3690205 21 2 C21 2.33 21 2.66 21 3 C15.06 3 9.12 3 3 3 C3 4.32 3 5.64 3 7 C2.01 7 1.02 7 0 7 C0 4.69 0 2.38 0 0 Z " fill="#325B17" transform="translate(155,216)"/>
<path d="M0 0 C10.23 0 20.46 0 31 0 C30.67 0.66 30.34 1.32 30 2 C27.69 2 25.38 2 23 2 C23 2.66 23 3.32 23 4 C15.125 3.125 15.125 3.125 14 2 C11.65012738 1.76472227 9.29443961 1.58613583 6.9375 1.4375 C5.64714844 1.35371094 4.35679687 1.26992187 3.02734375 1.18359375 C1.52880859 1.09271484 1.52880859 1.09271484 0 1 C0 0.67 0 0.34 0 0 Z " fill="#1E491D" transform="translate(155,215)"/>
<path d="M0 0 C0.33 0 0.66 0 1 0 C1.0272367 2.52090778 1.04695207 5.04151457 1.0625 7.5625 C1.07087891 8.26697266 1.07925781 8.97144531 1.08789062 9.69726562 C1.10882603 14.24024798 0.74800682 18.51784892 0 23 C-0.33 23 -0.66 23 -1 23 C-1 20.36 -1 17.72 -1 15 C-1.66 15 -2.32 15 -3 15 C-3.3152595 9.01006953 -2.68219822 5.36439644 0 0 Z " fill="#2B551B" transform="translate(256,243)"/>
<path d="M0 0 C7.91906056 1.76915183 13.61661992 5.0426942 20 10 C19.34 10.66 18.68 11.32 18 12 C17.4225 11.67 16.845 11.34 16.25 11 C13.80116138 9.72924102 13.80116138 9.72924102 10 10 C9.67 8.02 9.34 6.04 9 4 C7.88625 3.855625 6.7725 3.71125 5.625 3.5625 C2 3 2 3 0 2 C0 1.34 0 0.68 0 0 Z " fill="#356125" transform="translate(205,211)"/>
<path d="M0 0 C0 3 0 3 -1.92773438 5.26831055 C-2.80751953 6.13238525 -3.68730469 6.99645996 -4.59375 7.88671875 C-5.05986694 8.34859085 -5.52598389 8.81046295 -6.00622559 9.28633118 C-7.4972629 10.76056952 -8.99838872 12.22404088 -10.5 13.6875 C-11.51240054 14.68485528 -12.52412811 15.68289417 -13.53515625 16.68164062 C-16.01567629 19.12907564 -18.50535089 21.56695887 -21 24 C-21.66 23.67 -22.32 23.34 -23 23 C-15.33333333 15.33333333 -7.66666667 7.66666667 0 0 Z " fill="#B7D643" transform="translate(328,170)"/>
<path d="M0 0 C0.99 0 1.98 0 3 0 C2.67 6.6 2.34 13.2 2 20 C1.34 20.33 0.68 20.66 0 21 C0 14.07 0 7.14 0 0 Z " fill="#204919" transform="translate(155,223)"/>
<path d="M0 0 C0.33 0 0.66 0 1 0 C1.33 2.31 1.66 4.62 2 7 C4.31 7.33 6.62 7.66 9 8 C5.93753253 9.78409802 3.77920727 10.22880021 0.25 10.125 C-0.54921875 10.10695312 -1.3484375 10.08890625 -2.171875 10.0703125 C-2.77515625 10.04710937 -3.3784375 10.02390625 -4 10 C-3.52449439 8.51965236 -3.04448784 7.04074979 -2.5625 5.5625 C-2.29566406 4.73878906 -2.02882813 3.91507813 -1.75390625 3.06640625 C-1 1 -1 1 0 0 Z " fill="#2E591A" transform="translate(285,245)"/>
<path d="M0 0 C4.55712436 0.5425148 8.02568234 1.6893502 12 4 C12.33 4.66 12.66 5.32 13 6 C4.91111111 6.46666667 4.91111111 6.46666667 1.4375 4.6875 C0 3 0 3 0 0 Z " fill="#32591B" transform="translate(186,240)"/>
<path d="M0 0 C0 0.66 0 1.32 0 2 C-0.99 2.495 -0.99 2.495 -2 3 C-2.20625 3.639375 -2.4125 4.27875 -2.625 4.9375 C-4.56221107 7.8433166 -6.61595934 7.93138336 -9.9296875 8.60546875 C-10.95449219 8.80076172 -10.95449219 8.80076172 -12 9 C-13.33521402 9.3257183 -14.66916027 9.65684626 -16 10 C-13.19680829 7.00123678 -10.40565083 4.83677273 -6.875 2.75 C-6.00617188 2.22921875 -5.13734375 1.7084375 -4.2421875 1.171875 C-2 0 -2 0 0 0 Z " fill="#3B6825" transform="translate(300,127)"/>
<path d="M0 0 C0.99 0.33 1.98 0.66 3 1 C-1.62 5.62 -6.24 10.24 -11 15 C-11.33 14.01 -11.66 13.02 -12 12 C-11.01 11.67 -10.02 11.34 -9 11 C-8.26676204 8.98491642 -8.26676204 8.98491642 -8 7 C-7.01 7 -6.02 7 -5 7 C-5 6.01 -5 5.02 -5 4 C-4.34 4 -3.68 4 -3 4 C-3 3.34 -3 2.68 -3 2 C-2.01 2 -1.02 2 0 2 C0 1.34 0 0.68 0 0 Z " fill="#31591E" transform="translate(131,121)"/>
<path d="M0 0 C-0.33 0.66 -0.66 1.32 -1 2 C-3.76565382 2.92188461 -5.38283702 3.11785222 -8.23046875 3.09765625 C-9.03291016 3.09443359 -9.83535156 3.09121094 -10.66210938 3.08789062 C-11.49548828 3.07951172 -12.32886719 3.07113281 -13.1875 3.0625 C-14.03248047 3.05798828 -14.87746094 3.05347656 -15.74804688 3.04882812 C-17.83206155 3.03705403 -19.91603977 3.0191189 -22 3 C-22 2.67 -22 2.34 -22 2 C-7.40318907 -0.29612756 -7.40318907 -0.29612756 0 0 Z " fill="#3C631B" transform="translate(363,111)"/>
<path d="M0 0 C7.92 0 15.84 0 24 0 C24 0.33 24 0.66 24 1 C11.625 1.99 11.625 1.99 -1 3 C-0.67 2.01 -0.34 1.02 0 0 Z " fill="#4D7426" transform="translate(193,362)"/>
<path d="M0 0 C0 0.33 0 0.66 0 1 C-1.15628906 1.09087891 -1.15628906 1.09087891 -2.3359375 1.18359375 C-3.84027344 1.30927734 -3.84027344 1.30927734 -5.375 1.4375 C-6.87160156 1.55931641 -6.87160156 1.55931641 -8.3984375 1.68359375 C-10.97927613 1.84965626 -10.97927613 1.84965626 -13 3 C-15.88370333 3.07194869 -18.74239664 3.09291708 -21.625 3.0625 C-22.42679688 3.05798828 -23.22859375 3.05347656 -24.0546875 3.04882812 C-26.03649006 3.03703168 -28.01825433 3.01909605 -30 3 C-30 2.67 -30 2.34 -30 2 C-19.90994238 0.53235526 -10.2165875 -0.28734152 0 0 Z " fill="#618528" transform="translate(239,344)"/>
<path d="M0 0 C0.33 0 0.66 0 1 0 C0.96519531 0.91523438 0.93039062 1.83046875 0.89453125 2.7734375 C0.86746094 3.96195313 0.84039062 5.15046875 0.8125 6.375 C0.77769531 7.55835938 0.74289062 8.74171875 0.70703125 9.9609375 C0.80371094 10.96382812 0.90039062 11.96671875 1 13 C1.99 13.66 2.98 14.32 4 15 C4.1875 18.125 4.1875 18.125 4 21 C-2.06420927 13.72294887 -2.06420927 13.72294887 -1.9296875 10.11328125 C-1.53678142 6.68485888 -0.96759298 3.31746165 0 0 Z " fill="#3E6925" transform="translate(403,156)"/>
<path d="M0 0 C0.66 0.33 1.32 0.66 2 1 C0.85865673 3.00256574 -0.28818633 5.00199797 -1.4375 7 C-2.39462891 8.670625 -2.39462891 8.670625 -3.37109375 10.375 C-3.90863281 11.24125 -4.44617188 12.1075 -5 13 C-5.33 13 -5.66 13 -6 13 C-6 9.7 -6 6.4 -6 3 C-5.34 3 -4.68 3 -4 3 C-3.67 3.66 -3.34 4.32 -3 5 C-2.01 3.35 -1.02 1.7 0 0 Z " fill="#305A1C" transform="translate(284,220)"/>
<path d="M0 0 C0.33 0 0.66 0 1 0 C1 5.61 1 11.22 1 17 C0.34 17.33 -0.32 17.66 -1 18 C-2.41117949 11.6496923 -1.3792223 6.30338787 0 0 Z " fill="#255A34" transform="translate(405,153)"/>
<path d="M0 0 C3.63 0.33 7.26 0.66 11 1 C10.67 1.99 10.34 2.98 10 4 C6.37 4 2.74 4 -1 4 C-0.67 2.68 -0.34 1.36 0 0 Z " fill="#224C19" transform="translate(180,74)"/>
<path d="M0 0 C0.66 0 1.32 0 2 0 C3.31626692 3.61973402 4 6.09567131 4 10 C4.66 10 5.32 10 6 10 C6 11.32 6 12.64 6 14 C5.34 14 4.68 14 4 14 C3.13116294 12.42466914 2.28040932 10.83935491 1.4375 9.25 C0.96183594 8.36828125 0.48617187 7.4865625 -0.00390625 6.578125 C-1.07998186 3.79298812 -1.06528748 2.73019786 0 0 Z " fill="#345C1A" transform="translate(233,249)"/>
<path d="M0 0 C1.17175781 0.12761719 2.34351563 0.25523437 3.55078125 0.38671875 C4.73027344 0.50660156 5.90976562 0.62648437 7.125 0.75 C8.48044922 0.91048828 8.48044922 0.91048828 9.86328125 1.07421875 C9.53328125 1.73421875 9.20328125 2.39421875 8.86328125 3.07421875 C3.91328125 3.07421875 -1.03671875 3.07421875 -6.13671875 3.07421875 C-3.13671875 0.07421875 -3.13671875 0.07421875 0 0 Z " fill="#204C1C" transform="translate(312.13671875,233.92578125)"/>
<path d="M0 0 C0.66 0 1.32 0 2 0 C3.33333333 5.33333333 4.66666667 10.66666667 6 16 C5.01 15.67 4.02 15.34 3 15 C2.67 12.36 2.34 9.72 2 7 C1.34 7 0.68 7 0 7 C0 4.69 0 2.38 0 0 Z " fill="#426A23" transform="translate(157,229)"/>
<path d="M0 0 C-1.37687703 1.22989015 -2.77735833 2.43339578 -4.1875 3.625 C-4.96480469 4.29789063 -5.74210937 4.97078125 -6.54296875 5.6640625 C-9 7 -9 7 -11.80078125 6.2109375 C-12.52652344 5.81132812 -13.25226563 5.41171875 -14 5 C-11.90202645 2.90202645 -10.24390344 2.03212028 -7.5625 0.8125 C-6.78003906 0.44769531 -5.99757813 0.08289063 -5.19140625 -0.29296875 C-3 -1 -3 -1 0 0 Z " fill="#4F741E" transform="translate(347,156)"/>
<path d="M0 0 C2.31 0 4.62 0 7 0 C4.0094833 3.33557632 1.06815373 5.15083921 -3 7 C-3.33 5.68 -3.66 4.36 -4 3 C-2.68 3 -1.36 3 0 3 C0 2.01 0 1.02 0 0 Z " fill="#2F5C25" transform="translate(147,106)"/>
<path d="M0 0 C0 3 0 3 -1.390625 4.60546875 C-2.00421875 5.12753906 -2.6178125 5.64960938 -3.25 6.1875 C-3.85328125 6.71730469 -4.4565625 7.24710938 -5.078125 7.79296875 C-7 9 -7 9 -11 9 C-11 9.66 -11 10.32 -11 11 C-12.32 10.67 -13.64 10.34 -15 10 C-14.00097656 9.36191406 -13.00195312 8.72382813 -11.97265625 8.06640625 C-10.66922829 7.23183727 -9.36584519 6.39719823 -8.0625 5.5625 C-7.40314453 5.14162109 -6.74378906 4.72074219 -6.06445312 4.28710938 C-2.86871187 2.35604912 -2.86871187 2.35604912 0 0 Z " fill="#416B24" transform="translate(341,217)"/>
<path d="M0 0 C0.33 0.66 0.66 1.32 1 2 C-1.19737263 7.42018581 -4.06132612 11.75458573 -9 15 C-7.61219205 11.10993227 -5.7847773 8.03441292 -3.375 4.6875 C-2.74335938 3.80449219 -2.11171875 2.92148438 -1.4609375 2.01171875 C-0.97882813 1.34785156 -0.49671875 0.68398437 0 0 Z " fill="#3E661F" transform="translate(276,207)"/>
<path d="M0 0 C0.66 0 1.32 0 2 0 C2.91297308 4.97063121 2.91297308 9.02936879 2 14 C1.34 14 0.68 14 0 14 C0 9.38 0 4.76 0 0 Z " fill="#1F4817" transform="translate(423,179)"/>
<path d="M0 0 C2.64 0 5.28 0 8 0 C3.375 4.875 3.375 4.875 0 6 C0 4.02 0 2.04 0 0 Z " fill="#264F1C" transform="translate(293,143)"/>
<path d="M0 0 C0 0.66 0 1.32 0 2 C-0.99 2 -1.98 2 -3 2 C-3.23460937 2.64453125 -3.46921875 3.2890625 -3.7109375 3.953125 C-5 6 -5 6 -7.1640625 6.609375 C-7.97617188 6.65578125 -8.78828125 6.7021875 -9.625 6.75 C-10.44226563 6.80671875 -11.25953125 6.8634375 -12.1015625 6.921875 C-12.72804687 6.94765625 -13.35453125 6.9734375 -14 7 C-12.5438656 4.08773121 -10.50039336 3.68157936 -7.5625 2.375 C-6.07943359 1.70597656 -6.07943359 1.70597656 -4.56640625 1.0234375 C-2 0 -2 0 0 0 Z " fill="#406C25" transform="translate(175,77)"/>
<path d="M0 0 C5.61 0 11.22 0 17 0 C17 0.66 17 1.32 17 2 C17.66 2.33 18.32 2.66 19 3 C12.73 2.34 6.46 1.68 0 1 C0 0.67 0 0.34 0 0 Z " fill="#4F7423" transform="translate(286,362)"/>
<path d="M0 0 C3.63 0 7.26 0 11 0 C8.49751135 1.66832577 6.58850813 2.62381674 3.8125 3.625 C2.73935547 4.01558594 2.73935547 4.01558594 1.64453125 4.4140625 C1.10183594 4.60742188 0.55914062 4.80078125 0 5 C0 3.35 0 1.7 0 0 Z " fill="#2E5E28" transform="translate(180,87)"/>
<path d="M0 0 C0.66 0.33 1.32 0.66 2 1 C-3 6 -3 6 -4.75 7.625 C-6.25659086 9.09616618 -6.25659086 9.09616618 -7 12 C-7.99 12 -8.98 12 -10 12 C-8.52278578 8.54798361 -6.56205999 6.35038064 -3.875 3.75 C-3.15054687 3.04359375 -2.42609375 2.3371875 -1.6796875 1.609375 C-1.12539063 1.07828125 -0.57109375 0.5471875 0 0 Z " fill="#2E541B" transform="translate(300,181)"/>
<path d="M0 0 C3.3 0.33 6.6 0.66 10 1 C10.66 2.65 11.32 4.3 12 6 C7.96479403 4.41037341 3.98188718 2.71767682 0 1 C0 0.67 0 0.34 0 0 Z " fill="#3F6923" transform="translate(319,92)"/>
<path d="M0 0 C0.66 0 1.32 0 2 0 C2.12375 1.216875 2.2475 2.43375 2.375 3.6875 C2.78891306 7.06479059 3.54573451 9.89756695 5 13 C0.125 8.375 0.125 8.375 -1 5 C-0.5625 2.3125 -0.5625 2.3125 0 0 Z " fill="#305B1F" transform="translate(226,237)"/>
<path d="M0 0 C1.33617352 0.97528737 2.6688751 1.95533319 4 2.9375 C4.7425 3.48277344 5.485 4.02804688 6.25 4.58984375 C6.8275 5.05519531 7.405 5.52054688 8 6 C8 6.33 8 6.66 8 7 C6.02 7 4.04 7 2 7 C1.67 6.34 1.34 5.68 1 5 C0.67 5 0.34 5 0 5 C0 3.35 0 1.7 0 0 Z " fill="#325A1F" transform="translate(227,223)"/>
<path d="M0 0 C0.66 0 1.32 0 2 0 C2 4.62 2 9.24 2 14 C1.67 14 1.34 14 1 14 C-0.79217969 8.83430559 -1.12029814 5.48946087 0 0 Z " fill="#285014" transform="translate(73,179)"/>
<path d="M0 0 C0 0.66 0 1.32 0 2 C-3.63 2 -7.26 2 -11 2 C-11 1.34 -11 0.68 -11 0 C-6.98195309 -0.84098656 -3.98196457 -1.05404945 0 0 Z " fill="#204A1B" transform="translate(319,75)"/>
<path d="M0 0 C1.134375 0.020625 2.26875 0.04125 3.4375 0.0625 C-1.70535714 4.49107143 -1.70535714 4.49107143 -5.5625 5.0625 C-4.43693182 0.07784091 -4.43693182 0.07784091 0 0 Z " fill="#33622A" transform="translate(344.5625,412.9375)"/>
<path d="M0 0 C-2 2 -2 2 -5.0390625 2.1953125 C-6.22242188 2.17210937 -7.40578125 2.14890625 -8.625 2.125 C-9.81351563 2.10695313 -11.00203125 2.08890625 -12.2265625 2.0703125 C-13.14179688 2.04710937 -14.05703125 2.02390625 -15 2 C-15 1.67 -15 1.34 -15 1 C-13.44033408 0.63355422 -11.87707349 0.28239138 -10.3125 -0.0625 C-9.44238281 -0.25972656 -8.57226562 -0.45695312 -7.67578125 -0.66015625 C-4.83998724 -1.02032279 -2.75210018 -0.70909969 0 0 Z " fill="#214E18" transform="translate(206,286)"/>
<path d="M0 0 C0.33 0 0.66 0 1 0 C1 3.63 1 7.26 1 11 C0.34 11 -0.32 11 -1 11 C-1.54372951 7.94152152 -2 5.11227195 -2 2 C-1.34 1.34 -0.68 0.68 0 0 Z " fill="#1F4D1D" transform="translate(270,219)"/>
<path d="M0 0 C0.33 0 0.66 0 1 0 C0.979375 0.78375 0.95875 1.5675 0.9375 2.375 C0.81315937 4.98114961 0.81315937 4.98114961 2 7 C-0.76264289 7.59732819 -3.16032769 8 -6 8 C-5.02471263 6.66382648 -4.04466681 5.3311249 -3.0625 4 C-2.24458984 2.88625 -2.24458984 2.88625 -1.41015625 1.75 C-0.94480469 1.1725 -0.47945313 0.595 0 0 Z " fill="#3D6823" transform="translate(268,151)"/>
<path d="M0 0 C7 8.44827586 7 8.44827586 7 12 C6.34 12 5.68 12 5 12 C4.67 11.01 4.34 10.02 4 9 C3.319375 8.38125 2.63875 7.7625 1.9375 7.125 C0 5 0 5 -0.25 2.25 C-0.1675 1.5075 -0.085 0.765 0 0 Z " fill="#3A611B" transform="translate(409,149)"/>
<path d="M0 0 C3 1 3 1 5 4 C5.25760279 6.69452521 5.08900053 9.28548375 5 12 C3.20931427 9.3139714 2.33944209 7.3373411 1.375 4.3125 C1.11460937 3.50425781 0.85421875 2.69601562 0.5859375 1.86328125 C0.39257812 1.24839844 0.19921875 0.63351562 0 0 Z " fill="#335F1F" transform="translate(230,294)"/>
<path d="M0 0 C2.97903734 2.97903734 4 5.80285329 4 10 C3.01 10 2.02 10 1 10 C-0.60725635 6.78548731 -0.05748185 3.56387464 0 0 Z " fill="#365D24" transform="translate(164,248)"/>
<path d="M0 0 C3.21743924 0.18562149 5.35756683 0.82635498 8.25 2.1875 C8.25 2.5175 8.25 2.8475 8.25 3.1875 C6.8129191 3.24172947 5.37524538 3.28039723 3.9375 3.3125 C3.13699219 3.33570312 2.33648437 3.35890625 1.51171875 3.3828125 C-0.75 3.1875 -0.75 3.1875 -3.75 1.1875 C-2.75 0.1875 -2.75 0.1875 0 0 Z " fill="#1B4518" transform="translate(325.75,117.8125)"/>
<path d="M0 0 C3.63 0 7.26 0 11 0 C8 3 8 3 5.95703125 3.07421875 C2.97851562 2.53710938 2.97851562 2.53710938 0 2 C0 1.34 0 0.68 0 0 Z " fill="#234A1C" transform="translate(329,237)"/>
<path d="M0 0 C0.99 0.33 1.98 0.66 3 1 C3.33 1.99 3.66 2.98 4 4 C3.34 4 2.68 4 2 4 C1.87625 4.598125 1.7525 5.19625 1.625 5.8125 C1 8 1 8 -1 11 C-0.67 7.37 -0.34 3.74 0 0 Z " fill="#3F671F" transform="translate(405,145)"/>
<path d="M0 0 C0 0.99 0 1.98 0 3 C-0.66 3 -1.32 3 -2 3 C-1.67 3.99 -1.34 4.98 -1 6 C-2 7 -2 7 -5.0625 7.0625 C-6.5165625 7.0315625 -6.5165625 7.0315625 -8 7 C-5.42215154 4.35247996 -3.08351902 2.05567935 0 0 Z " fill="#356428" transform="translate(137,98)"/>
<path d="M0 0 C0.33 0 0.66 0 1 0 C1.33 2.97 1.66 5.94 2 9 C1.01 9.66 0.02 10.32 -1 11 C-1.02688151 9.35425434 -1.04634123 7.70838587 -1.0625 6.0625 C-1.07410156 5.14597656 -1.08570313 4.22945313 -1.09765625 3.28515625 C-1 1 -1 1 0 0 Z " fill="#244E1D" transform="translate(402,353)"/>
<path d="M0 0 C2 3.75 2 3.75 2 6 C3.65 6 5.3 6 7 6 C7 6.33 7 6.66 7 7 C4.03 7 1.06 7 -2 7 C-1.34 4.69 -0.68 2.38 0 0 Z " fill="#5F8526" transform="translate(283,248)"/>
<path d="M0 0 C2.93200474 2.85276137 5.64315404 5.65079784 8 9 C2.37865749 7.53356282 2.37865749 7.53356282 0.625 5.0625 C0 3 0 3 0 0 Z " fill="#376023" transform="translate(112,358)"/>
<path d="M0 0 C1.5 1.125 1.5 1.125 3 3 C3.1875 6.1875 3.1875 6.1875 3 9 C2.01 8.67 1.02 8.34 0 8 C0 5.36 0 2.72 0 0 Z " fill="#214C17" transform="translate(75,214)"/>
<path d="M0 0 C0.66 0 1.32 0 2 0 C3.125 6.75 3.125 6.75 2 9 C1.34 9 0.68 9 0 9 C0 6.03 0 3.06 0 0 Z " fill="#234B15" transform="translate(271,165)"/>
<path d="M0 0 C0.66 0 1.32 0 2 0 C2.33 2.97 2.66 5.94 3 9 C2.01 8.67 1.02 8.34 0 8 C0 5.36 0 2.72 0 0 Z " fill="#1B4412" transform="translate(407,149)"/>
<path d="M0 0 C0 0.99 0 1.98 0 3 C-2.8125 5.75 -2.8125 5.75 -6 8 C-6.99 7.67 -7.98 7.34 -9 7 C-6.03 4.69 -3.06 2.38 0 0 Z " fill="#3D6826" transform="translate(362,383)"/>
<path d="M0 0 C0.33 0 0.66 0 1 0 C1.33 3.3 1.66 6.6 2 10 C1.01 10 0.02 10 -1 10 C-1.125 2.25 -1.125 2.25 0 0 Z " fill="#1D461A" transform="translate(163,248)"/>
<path d="M0 0 C0.66 0 1.32 0 2 0 C2.8125 2.1875 2.8125 2.1875 3 5 C0.5625 7.8125 0.5625 7.8125 -2 10 C-2 9.01 -2 8.02 -2 7 C-1.34 7 -0.68 7 0 7 C0 4.69 0 2.38 0 0 Z " fill="#27511B" transform="translate(365,208)"/>
<path d="M0 0 C0.33 0 0.66 0 1 0 C1.25 2.3125 1.25 2.3125 1 5 C-0.8125 6.875 -0.8125 6.875 -3 8 C-3.99 7.67 -4.98 7.34 -6 7 C-5.02433888 5.83040013 -4.044375 4.66438823 -3.0625 3.5 C-2.51722656 2.8503125 -1.97195313 2.200625 -1.41015625 1.53125 C-0.71212891 0.77328125 -0.71212891 0.77328125 0 0 Z " fill="#406923" transform="translate(356,201)"/>
<path d="M0 0 C3.0916909 2.52956528 3.90931332 5.22454612 5 9 C4.01 9 3.02 9 2 9 C0.50178941 5.62902617 0 3.79557881 0 0 Z " fill="#39621A" transform="translate(416,162)"/>
<path d="M0 0 C0.33 0 0.66 0 1 0 C1.3125 2.1875 1.3125 2.1875 1 5 C-1.5 7.8125 -1.5 7.8125 -4 10 C-4.66 9.67 -5.32 9.34 -6 9 C-5.02501855 7.4972763 -4.04490611 5.99788037 -3.0625 4.5 C-2.51722656 3.6646875 -1.97195312 2.829375 -1.41015625 1.96875 C-0.94480469 1.3190625 -0.47945313 0.669375 0 0 Z " fill="#376120" transform="translate(95,140)"/>
<path d="M0 0 C2.625 -0.1875 2.625 -0.1875 5 0 C5 0.66 5 1.32 5 2 C5.66 2.33 6.32 2.66 7 3 C4.03 3 1.06 3 -2 3 C-1.34 2.01 -0.68 1.02 0 0 Z " fill="#2A5617" transform="translate(302,125)"/>
<path d="M0 0 C2.64 0.33 5.28 0.66 8 1 C8 1.66 8 2.32 8 3 C5.36 3 2.72 3 0 3 C0 2.01 0 1.02 0 0 Z " fill="#214B1A" transform="translate(150,89)"/>
<path d="M0 0 C2.97 0 5.94 0 9 0 C9 0.66 9 1.32 9 2 C5.52176885 3.15941038 3.54104422 2.70820884 0 2 C0 1.34 0 0.68 0 0 Z " fill="#234B1C" transform="translate(351,404)"/>
<path d="M0 0 C1.65 0 3.3 0 5 0 C5.33 0.99 5.66 1.98 6 3 C3.525 4.485 3.525 4.485 1 6 C1.33 4.35 1.66 2.7 2 1 C1.34 0.67 0.68 0.34 0 0 Z " fill="#305617" transform="translate(331,161)"/>
<path d="M0 0 C-2.62198774 2.15377564 -4.64404172 3.40072174 -8 4 C-8.33 3.01 -8.66 2.02 -9 1 C-5.8035914 -0.06546953 -3.34252724 -0.07427838 0 0 Z " fill="#315C1A" transform="translate(179,92)"/>
<path d="M0 0 C2.64 0 5.28 0 8 0 C8 0.66 8 1.32 8 2 C8.66 2 9.32 2 10 2 C10 2.66 10 3.32 10 4 C6.7 3.01 3.4 2.02 0 1 C0 0.67 0 0.34 0 0 Z " fill="#456C25" transform="translate(306,87)"/>
<path d="M0 0 C3.63 0 7.26 0 11 0 C11 0.33 11 0.66 11 1 C7.04 1.66 3.08 2.32 -1 3 C-0.67 2.01 -0.34 1.02 0 0 Z " fill="#3C662C" transform="translate(207,80)"/>
<path d="M0 0 C0.33 1.32 0.66 2.64 1 4 C-1.4375 6.75 -1.4375 6.75 -4 9 C-4.66 8.67 -5.32 8.34 -6 8 C-4.02 5.36 -2.04 2.72 0 0 Z " fill="#3C6422" transform="translate(393,348)"/>
<path d="M0 0 C0.33 0 0.66 0 1 0 C1.25 3.3125 1.25 3.3125 1 7 C-0.32 7.99 -1.64 8.98 -3 10 C-2.01 6.7 -1.02 3.4 0 0 Z " fill="#487024" transform="translate(413,308)"/>
<path d="M0 0 C0.66 1.32 1.32 2.64 2 4 C1.360625 4.433125 0.72125 4.86625 0.0625 5.3125 C-2.26746003 6.91239177 -2.26746003 6.91239177 -3 10 C-3.66 9.67 -4.32 9.34 -5 9 C-3.35 6.03 -1.7 3.06 0 0 Z " fill="#3C621F" transform="translate(261,161)"/>
<path d="M0 0 C0.99 0 1.98 0 3 0 C1.92598892 2.91517292 1.22189824 4.77810176 -1 7 C-2 4 -2 4 -1.0625 1.8125 C-0.5365625 0.9153125 -0.5365625 0.9153125 0 0 Z " fill="#2E561E" transform="translate(100,157)"/>
<path d="M0 0 C1.65 0 3.3 0 5 0 C3.35 1.98 1.7 3.96 0 6 C-0.66 5.34 -1.32 4.68 -2 4 C-1.34 4 -0.68 4 0 4 C0 2.68 0 1.36 0 0 Z " fill="#3D631E" transform="translate(285,152)"/>
<path d="M0 0 C1.65 0 3.3 0 5 0 C3.35 1.65 1.7 3.3 0 5 C-0.33 4.01 -0.66 3.02 -1 2 C-0.67 1.34 -0.34 0.68 0 0 Z " fill="#2F5B21" transform="translate(374,389)"/>
<path d="M0 0 C0.99 0 1.98 0 3 0 C1.63016497 3.16115776 1.0109362 3.9927092 -2 6 C-1.125 1.125 -1.125 1.125 0 0 Z " fill="#3A601F" transform="translate(383,382)"/>
<path d="M0 0 C2.875 -0.125 2.875 -0.125 6 0 C6.66 0.66 7.32 1.32 8 2 C5.36 2.33 2.72 2.66 0 3 C0 2.01 0 1.02 0 0 Z " fill="#346024" transform="translate(333,356)"/>
<path d="M0 0 C0.66 0 1.32 0 2 0 C2.33 2.64 2.66 5.28 3 8 C2.01 8.33 1.02 8.66 0 9 C0 6.03 0 3.06 0 0 Z " fill="#204C21" transform="translate(105,351)"/>
<path d="M0 0 C1.32 0 2.64 0 4 0 C3.34 1.98 2.68 3.96 2 6 C1.34 5.67 0.68 5.34 0 5 C0 3.35 0 1.7 0 0 Z " fill="#416618" transform="translate(249,223)"/>
<path d="M0 0 C0.66 0 1.32 0 2 0 C2 1.98 2 3.96 2 6 C0.35 6 -1.3 6 -3 6 C-2.67 5.34 -2.34 4.68 -2 4 C-1.34 4 -0.68 4 0 4 C0 2.68 0 1.36 0 0 Z " fill="#1C471B" transform="translate(284,137)"/>
<path d="M0 0 C1.98 0.99 3.96 1.98 6 3 C6 3.66 6 4.32 6 5 C4.35 5 2.7 5 1 5 C0.67 3.35 0.34 1.7 0 0 Z " fill="#40651B" transform="translate(357,95)"/>
<path d="M0 0 C1.98 0 3.96 0 6 0 C6 0.66 6 1.32 6 2 C4.35 2.66 2.7 3.32 1 4 C0.67 2.68 0.34 1.36 0 0 Z " fill="#2E5D2D" transform="translate(165,95)"/>
</svg>
